<svg width="512" height="512" viewBox="0 0 512 512" fill="none" xmlns="http://www.w3.org/2000/svg">
<path d="M278.143 149.715C278.143 100.798 238.488 61.1431 189.571 61.1431C140.655 61.1431 101 100.798 101 149.715C101 198.631 140.655 238.286 189.571 238.286C238.488 238.286 278.143 198.631 278.143 149.715Z" fill="#1770FE" stroke="#1770FE" stroke-width="20"/>
<path d="M207.286 220.571C207.286 171.655 167.631 132 118.714 132C69.7976 132 30.1428 171.655 30.1428 220.571C30.1428 269.488 69.7976 309.143 118.714 309.143C167.631 309.143 207.286 269.488 207.286 220.571Z" fill="#1770FE" stroke="#1770FE" stroke-width="20"/>
<path d="M207.286 291.428C207.286 242.512 167.631 202.857 118.714 202.857C69.7976 202.857 30.1428 242.512 30.1428 291.428C30.1428 340.345 69.7976 380 118.714 380C167.631 380 207.286 340.345 207.286 291.428Z" fill="#1770FE" stroke="#1770FE" stroke-width="20"/>
<path d="M278.143 362.286C278.143 313.369 238.488 273.714 189.571 273.714C140.655 273.714 101 313.369 101 362.286C101 411.202 140.655 450.857 189.571 450.857C238.488 450.857 278.143 411.202 278.143 362.286Z" fill="#1770FE" stroke="#1770FE" stroke-width="20"/>
<path d="M233.857 149.715C233.857 100.798 273.512 61.1431 322.429 61.1431C371.345 61.1431 411 100.798 411 149.715C411 198.631 371.345 238.286 322.429 238.286C273.512 238.286 233.857 198.631 233.857 149.715Z" fill="#1770FE" stroke="#1770FE" stroke-width="20"/>
<path d="M304.714 220.571C304.714 171.655 344.369 132 393.286 132C442.202 132 481.857 171.655 481.857 220.571C481.857 269.488 442.202 309.143 393.286 309.143C344.369 309.143 304.714 269.488 304.714 220.571Z" fill="#1770FE" stroke="#1770FE" stroke-width="20"/>
<path d="M304.714 291.428C304.714 242.512 344.369 202.857 393.286 202.857C442.202 202.857 481.857 242.512 481.857 291.428C481.857 340.345 442.202 380 393.286 380C344.369 380 304.714 340.345 304.714 291.428Z" fill="#1770FE" stroke="#1770FE" stroke-width="20"/>
<path d="M233.857 362.286C233.857 313.369 273.512 273.714 322.429 273.714C371.345 273.714 411 313.369 411 362.286C411 411.202 371.345 450.857 322.429 450.857C273.512 450.857 233.857 411.202 233.857 362.286Z" fill="#1770FE" stroke="#1770FE" stroke-width="20"/>
<path d="M207.133 224.874L114.286 257.875L207.133 291.874L256 330.732L304.867 291.874L397.714 257.875L304.867 224.874L256 180.161L207.133 224.874Z" fill="white"/>
<path d="M248.93 171.641C253.159 168.125 259.375 168.243 263.473 171.993L310.686 215.193L401.423 247.443C405.819 249.006 408.764 253.157 408.786 257.823C408.808 262.488 405.903 266.666 401.523 268.272L310.356 301.652L262.891 339.397C258.859 342.605 253.141 342.605 249.109 339.397L201.642 301.652L110.478 268.272C106.097 266.666 103.192 262.488 103.214 257.823C103.237 253.157 106.181 249.006 110.577 247.443L201.311 215.193L248.527 171.993L248.93 171.641ZM214.608 233.042C213.516 234.04 212.235 234.81 210.841 235.306L146.905 258.028L210.94 281.48L211.355 281.639C212.313 282.033 213.212 282.563 214.024 283.209L256 316.585L297.976 283.209L298.328 282.939C299.165 282.326 300.084 281.836 301.061 281.48L365.093 258.028L301.16 235.306C299.765 234.81 298.483 234.04 297.392 233.042L256 195.165L214.608 233.042Z" fill="white"/>
</svg>
